# xmcd CD database file
#
# Track frame offsets:
#	150
#	10576
#	21076
#	34876
#	46126
#	58802
#	71702
#	83477
#	97428
#	107928
#	121728
#	135153
#
# Disc length: 1954 seconds
#
# Revision: 0
# Processed by: cddbd v1.4PL0 Copyright (c) Steve Scherf et al.
# Submitted via: CDex 1.51
#
DISCID=9807a00c
DTITLE=Ray Charles - Blues in my middle name
DYEAR=1900
DGENRE=Blues
TTITLE0=They're crazy about me
TTITLE1=Sittin' on the top of the world
TTITLE2=I'm gonna drown(misery in my heart)
TTITLE3=All alone again
TTITLE4=Snow is Fallin'(snowfall)
TTITLE5=Going down slow
TTITLE6=C.C.Rider
TTITLE7=Kissa me baby
TTITLE8=Hey now
TTITLE9=Baby, let me hold your hand(oh baby)
TTITLE10=Blues is my middle name
TTITLE11=If gave you my love
EXTD=
EXTT0=
EXTT1=
EXTT2=
EXTT3=
EXTT4=
EXTT5=
EXTT6=
EXTT7=
EXTT8=
EXTT9=
EXTT10=
EXTT11=
PLAYORDER=
